<svg width="218" height="7" viewBox="0 0 218 7" fill="none" xmlns="http://www.w3.org/2000/svg">
<ellipse cx="2.19002" cy="0.719092" rx="2.19002" ry="0.719092" transform="matrix(-0.830879 0.556453 0.743196 0.669073 215.295 0)" fill="#F4D8A2"/>
<ellipse cx="2.45477" cy="0.741253" rx="2.45477" ry="0.741253" transform="matrix(-1 0 0 1 218 2.75323)" fill="#F4D8A2"/>
<ellipse cx="2.18999" cy="0.719098" rx="2.18999" ry="0.719098" transform="matrix(-0.830859 -0.556482 -0.743222 0.669045 216.364 6.03778)" fill="#F4D8A2"/>
<ellipse cx="2.19001" cy="0.719091" rx="2.19001" ry="0.719091" transform="matrix(0.830879 -0.556453 -0.743196 -0.669074 2.70532 7)" fill="#F4D8A2"/>
<ellipse cx="2.45477" cy="0.741253" rx="2.45477" ry="0.741253" transform="matrix(1 0 0 -1 0 4.24677)" fill="#F4D8A2"/>
<ellipse cx="2.18999" cy="0.719098" rx="2.18999" ry="0.719098" transform="matrix(0.830859 0.556483 0.743221 -0.669046 1.63647 0.962219)" fill="#F4D8A2"/>
<path d="M9.01501 3.81866H209.804" stroke="#F4D8A2"/>
</svg>
