<svg width="589" height="98" viewBox="0 0 589 98" fill="none" xmlns="http://www.w3.org/2000/svg">
<circle cx="6.5" cy="51" r="6.5" fill="#F4D8A2"/>
<path d="M44.6807 73.33C54.6207 76.7833 62.064 79.1167 67.0107 80.33C72.004 81.59 76.274 82.22 79.8207 82.22C83.414 82.22 87.3573 81.4033 91.6507 79.77L92.0007 80.33C86.3073 84.25 80.5673 86.21 74.7807 86.21C68.854 86.21 62.1107 84.3667 54.5507 80.68C48.7173 77.7867 45.1007 76.0367 43.7007 75.43C38.7073 73.19 34.6007 72.0467 31.3807 72V71.3H32.2907C33.504 71.3 34.5307 70.88 35.3707 70.04C36.2573 69.2 36.724 68.15 36.7707 66.89V28.11C36.724 26.8967 36.2573 25.87 35.3707 25.03C34.5307 24.1433 33.504 23.7 32.2907 23.7H31.3807V23H46.7107V23.7H45.8007C44.5873 23.7 43.5373 24.1433 42.6507 25.03C41.764 25.87 41.3207 26.8967 41.3207 28.11V68.5C41.3207 69.34 41.3673 69.9933 41.4607 70.46C41.554 70.88 41.8573 71.37 42.3707 71.93C42.884 72.49 43.654 72.9567 44.6807 73.33ZM60.3864 71.3C61.5997 71.3 62.6264 70.88 63.4664 70.04C64.353 69.1533 64.8197 68.1033 64.8664 66.89V27.69C64.8664 26.57 64.423 25.6367 63.5364 24.89C62.6497 24.0967 61.5997 23.7 60.3864 23.7H59.5464L59.4764 23H79.9864C81.433 23 82.9964 22.86 84.6764 22.58C86.403 22.3 87.6164 22.02 88.3164 21.74V30.56H87.6164V29.3C87.6164 28.18 87.2197 27.2233 86.4264 26.43C85.6797 25.6367 84.7697 25.2167 83.6964 25.17H69.4164V46.8H81.2464C82.1797 46.7533 82.973 46.4033 83.6264 45.75C84.2797 45.0967 84.6064 44.28 84.6064 43.3V42.32H85.3064V53.38H84.6064V52.33C84.6064 51.3967 84.2797 50.6033 83.6264 49.95C83.0197 49.2967 82.2497 48.9467 81.3164 48.9H69.4164V69.83H79.4264C82.8797 69.83 85.5164 69.06 87.3364 67.52C89.1564 65.98 90.673 63.6933 91.8864 60.66H92.5864L88.5264 72H59.4764V71.3H60.3864ZM123.64 72.98C116.173 72.9333 110.106 70.5767 105.44 65.91C100.82 61.2433 98.5096 55.1067 98.5096 47.5C98.5096 39.8933 100.82 33.7567 105.44 29.09C110.106 24.3767 116.173 22.02 123.64 22.02C130.08 22.02 135.75 23.6067 140.65 26.78L142.05 36.65H141.42C140.393 32.6367 138.316 29.5567 135.19 27.41C132.11 25.2167 128.26 24.12 123.64 24.12C117.713 24.12 112.906 26.2667 109.22 30.56C105.58 34.8533 103.76 40.5 103.76 47.5C103.76 54.5 105.58 60.1467 109.22 64.44C112.906 68.6867 117.713 70.8333 123.64 70.88C126.673 70.88 129.543 70.3433 132.25 69.27C135.003 68.1967 137.406 66.7033 139.46 64.79V52.4C139.46 51.3733 139.133 50.6033 138.48 50.09C137.873 49.53 137.01 49.25 135.89 49.25H134.77V48.55H148.49V49.25H147.44C146.273 49.25 145.386 49.53 144.78 50.09C144.173 50.6033 143.893 51.3733 143.94 52.4V63.95C142.726 65.5367 141.28 66.96 139.6 68.22C137.92 69.48 135.656 70.6 132.81 71.58C130.01 72.5133 126.953 72.98 123.64 72.98ZM199.937 71.3H200.497V72H184.747V71.3H185.377C186.357 71.3 187.081 70.9967 187.547 70.39C188.061 69.7367 188.317 69.13 188.317 68.57C188.317 68.01 188.224 67.45 188.037 66.89L183.557 54.99H164.657L159.967 66.96C159.781 67.52 159.687 68.08 159.687 68.64C159.687 69.1533 159.921 69.7367 160.387 70.39C160.901 70.9967 161.647 71.3 162.627 71.3H163.257V72H149.187V71.3H149.817C150.984 71.3 152.127 70.9267 153.247 70.18C154.367 69.4333 155.277 68.3367 155.977 66.89L171.797 29.23C173.524 25.45 174.387 23.0467 174.387 22.02H175.017L193.777 66.89C194.431 68.3367 195.317 69.4333 196.437 70.18C197.557 70.9267 198.724 71.3 199.937 71.3ZM165.497 52.89H182.717L174.317 30.42L165.497 52.89ZM226.38 72.98C219.007 72.9333 212.987 70.5767 208.32 65.91C203.7 61.2433 201.39 55.1067 201.39 47.5C201.39 39.8467 203.7 33.6867 208.32 29.02C212.987 24.3533 219.147 22.02 226.8 22.02C233.054 22.02 238.584 23.6067 243.39 26.78L244.79 36.65H244.16C243.134 32.6367 241.057 29.5567 237.93 27.41C234.804 25.2167 231.094 24.12 226.8 24.12C220.687 24.12 215.787 26.2433 212.1 30.49C208.46 34.7367 206.64 40.36 206.64 47.36C206.64 54.36 208.437 60.0067 212.03 64.3C215.67 68.5467 220.454 70.74 226.38 70.88C231.607 70.88 235.97 69.4567 239.47 66.61C243.25 63.53 245.537 58.5133 246.33 51.56H246.89L246.05 62.55C241.804 69.5033 235.247 72.98 226.38 72.98ZM297.484 23.7H296.504C295.104 23.7 293.774 24.0967 292.514 24.89C291.301 25.6367 290.274 26.5933 289.434 27.76L275.644 50.16V66.89C275.644 68.1033 276.064 69.1533 276.904 70.04C277.791 70.88 278.864 71.3 280.124 71.3H280.964V72H265.704V71.3H266.614C267.827 71.3 268.854 70.88 269.694 70.04C270.581 69.2 271.047 68.1733 271.094 66.96V50.09L257.724 27.76C257.024 26.64 256.021 25.6833 254.714 24.89C253.454 24.0967 252.124 23.7 250.724 23.7H249.744V23H266.964V23.7H266.054C265.027 23.7 264.234 24.1667 263.674 25.1C263.394 25.6133 263.254 26.1267 263.254 26.64C263.254 27.1067 263.371 27.5733 263.604 28.04L274.104 47.64L285.304 27.97C285.537 27.5033 285.654 27.0367 285.654 26.57C285.654 26.1033 285.491 25.6133 285.164 25.1C284.604 24.1667 283.811 23.7 282.784 23.7H281.944V23H297.484V23.7ZM368.403 9.28C369.99 8.20666 371.88 7.36666 374.073 6.76C376.267 6.15333 378.04 5.85 379.393 5.85C380.747 5.85 381.61 5.85 381.983 5.85V6.55C379.79 6.64333 377.737 7.08666 375.823 7.88C373.91 8.62666 372.323 9.51333 371.063 10.54C369.85 11.52 368.66 12.85 367.493 14.53C366.327 16.1633 365.417 17.5633 364.763 18.73C364.157 19.8967 363.433 21.39 362.593 23.21L343.133 65.77C341.407 69.55 340.543 71.9533 340.543 72.98H339.913L320.243 28.11C319.59 26.6167 318.68 25.52 317.513 24.82C316.393 24.0733 315.25 23.7 314.083 23.7H313.523V23H329.273V23.7H328.643C327.243 23.7 326.31 24.3533 325.843 25.66C325.75 25.94 325.703 26.2667 325.703 26.64C325.703 27.0133 325.82 27.48 326.053 28.04L340.683 64.72L358.043 23.21C360.797 16.7233 364.25 12.08 368.403 9.28ZM369.507 71.3C370.721 71.3 371.747 70.88 372.587 70.04C373.474 69.1533 373.941 68.1033 373.987 66.89V28.04C373.941 26.8267 373.474 25.8 372.587 24.96C371.747 24.12 370.721 23.7 369.507 23.7H368.597V23H383.927V23.7H383.017C381.804 23.7 380.754 24.12 379.867 24.96C379.027 25.8 378.584 26.8267 378.537 28.04V66.89C378.537 68.1033 378.981 69.1533 379.867 70.04C380.754 70.88 381.804 71.3 383.017 71.3H383.927V72H368.597V71.3H369.507ZM392.32 69.13C392.18 68.4767 392.11 67.2167 392.11 65.35C392.11 63.4833 392.46 61.5 393.16 59.4H393.79C393.743 59.9133 393.72 60.4267 393.72 60.94C393.72 63.7867 394.583 66.1667 396.31 68.08C398.036 69.9467 400.323 70.88 403.17 70.88C406.11 70.88 408.513 69.9933 410.38 68.22C412.293 66.4467 413.25 64.23 413.25 61.57C413.25 58.8633 412.34 56.67 410.52 54.99L397.08 42.53C394.56 40.1967 393.3 37.3733 393.3 34.06C393.3 30.7467 394.396 27.9233 396.59 25.59C398.83 23.21 401.84 22.02 405.62 22.02C407.393 22.02 409.4 22.2533 411.64 22.72H414.37V31.33H413.74C413.74 29.1367 412.97 27.3867 411.43 26.08C409.936 24.7733 408 24.12 405.62 24.12C403.24 24.12 401.233 24.9133 399.6 26.5C398.013 28.0867 397.22 30.07 397.22 32.45C397.22 34.83 398.153 36.8833 400.02 38.61L413.81 51.35C416.143 53.4967 417.31 56.4367 417.31 60.17C417.31 63.9033 416.12 66.9833 413.74 69.41C411.36 71.79 408.186 72.98 404.22 72.98C402.166 72.98 399.973 72.6533 397.64 72C395.353 71.3933 393.58 70.4367 392.32 69.13ZM426.451 71.3C427.664 71.3 428.691 70.88 429.531 70.04C430.417 69.1533 430.884 68.1033 430.931 66.89V28.04C430.884 26.8267 430.417 25.8 429.531 24.96C428.691 24.12 427.664 23.7 426.451 23.7H425.541V23H440.871V23.7H439.961C438.747 23.7 437.697 24.12 436.811 24.96C435.971 25.8 435.527 26.8267 435.481 28.04V66.89C435.481 68.1033 435.924 69.1533 436.811 70.04C437.697 70.88 438.747 71.3 439.961 71.3H440.871V72H425.541V71.3H426.451ZM453.916 29.09C458.909 24.3767 465.373 22.02 473.306 22.02C481.286 22.02 487.773 24.3767 492.766 29.09C497.759 33.7567 500.256 39.8933 500.256 47.5C500.256 55.1067 497.759 61.2667 492.766 65.98C487.773 70.6467 481.286 72.98 473.306 72.98C465.373 72.98 458.909 70.6467 453.916 65.98C448.923 61.2667 446.426 55.1067 446.426 47.5C446.426 39.8933 448.923 33.7567 453.916 29.09ZM457.696 64.44C461.663 68.7333 466.866 70.88 473.306 70.88C479.746 70.88 484.926 68.7333 488.846 64.44C492.813 60.1467 494.796 54.5 494.796 47.5C494.796 40.5 492.813 34.8533 488.846 30.56C484.926 26.2667 479.746 24.12 473.306 24.12C466.866 24.12 461.663 26.2667 457.696 30.56C453.776 34.8533 451.816 40.5 451.816 47.5C451.816 54.5 453.776 60.1467 457.696 64.44ZM557.422 23.7C556.255 23.7 555.252 24.12 554.412 24.96C553.572 25.7533 553.129 26.7333 553.082 27.9V64.02C553.082 66.7267 553.245 69.2933 553.572 71.72L553.712 72.98H553.082L514.932 32.24V67.1C514.932 68.2667 515.352 69.27 516.192 70.11C517.032 70.9033 518.035 71.3 519.202 71.3H520.532V72H506.112V71.3H507.442C508.609 71.3 509.612 70.9033 510.452 70.11C511.292 69.27 511.712 68.2433 511.712 67.03V30.7C511.712 27.8533 511.549 25.31 511.222 23.07L511.082 21.95H511.782L549.932 62.69V27.97C549.885 26.7567 549.442 25.7533 548.602 24.96C547.762 24.12 546.759 23.7 545.592 23.7H544.262V23H558.682V23.7H557.422Z" fill="#F4D8A2"/>
<circle cx="582.5" cy="51" r="6.5" fill="#F4D8A2"/>
</svg>
