<svg width="589" height="122" viewBox="0 0 589 122" fill="none" xmlns="http://www.w3.org/2000/svg">
<circle cx="6.5" cy="51" r="6.5" fill="#F4D8A2"/>
<path d="M44.6807 73.33C54.6207 76.7833 62.064 79.1167 67.0107 80.33C72.004 81.59 76.274 82.22 79.8207 82.22C83.414 82.22 87.3573 81.4033 91.6507 79.77L92.0007 80.33C86.3073 84.25 80.5673 86.21 74.7807 86.21C68.854 86.21 62.1107 84.3667 54.5507 80.68C48.7173 77.7867 45.1007 76.0367 43.7007 75.43C38.7073 73.19 34.6007 72.0467 31.3807 72V71.3H32.2907C33.504 71.3 34.5307 70.88 35.3707 70.04C36.2573 69.2 36.724 68.15 36.7707 66.89V28.11C36.724 26.8967 36.2573 25.87 35.3707 25.03C34.5307 24.1433 33.504 23.7 32.2907 23.7H31.3807V23H46.7107V23.7H45.8007C44.5873 23.7 43.5373 24.1433 42.6507 25.03C41.764 25.87 41.3207 26.8967 41.3207 28.11V68.5C41.3207 69.34 41.3673 69.9933 41.4607 70.46C41.554 70.88 41.8573 71.37 42.3707 71.93C42.884 72.49 43.654 72.9567 44.6807 73.33ZM60.3864 71.3C61.5997 71.3 62.6264 70.88 63.4664 70.04C64.353 69.1533 64.8197 68.1033 64.8664 66.89V27.69C64.8664 26.57 64.423 25.6367 63.5364 24.89C62.6497 24.0967 61.5997 23.7 60.3864 23.7H59.5464L59.4764 23H79.9864C81.433 23 82.9964 22.86 84.6764 22.58C86.403 22.3 87.6164 22.02 88.3164 21.74V30.56H87.6164V29.3C87.6164 28.18 87.2197 27.2233 86.4264 26.43C85.6797 25.6367 84.7697 25.2167 83.6964 25.17H69.4164V46.8H81.2464C82.1797 46.7533 82.973 46.4033 83.6264 45.75C84.2797 45.0967 84.6064 44.28 84.6064 43.3V42.32H85.3064V53.38H84.6064V52.33C84.6064 51.3967 84.2797 50.6033 83.6264 49.95C83.0197 49.2967 82.2497 48.9467 81.3164 48.9H69.4164V69.83H79.4264C82.8797 69.83 85.5164 69.06 87.3364 67.52C89.1564 65.98 90.673 63.6933 91.8864 60.66H92.5864L88.5264 72H59.4764V71.3H60.3864ZM123.64 72.98C116.173 72.9333 110.106 70.5767 105.44 65.91C100.82 61.2433 98.5096 55.1067 98.5096 47.5C98.5096 39.8933 100.82 33.7567 105.44 29.09C110.106 24.3767 116.173 22.02 123.64 22.02C130.08 22.02 135.75 23.6067 140.65 26.78L142.05 36.65H141.42C140.393 32.6367 138.316 29.5567 135.19 27.41C132.11 25.2167 128.26 24.12 123.64 24.12C117.713 24.12 112.906 26.2667 109.22 30.56C105.58 34.8533 103.76 40.5 103.76 47.5C103.76 54.5 105.58 60.1467 109.22 64.44C112.906 68.6867 117.713 70.8333 123.64 70.88C126.673 70.88 129.543 70.3433 132.25 69.27C135.003 68.1967 137.406 66.7033 139.46 64.79V52.4C139.46 51.3733 139.133 50.6033 138.48 50.09C137.873 49.53 137.01 49.25 135.89 49.25H134.77V48.55H148.49V49.25H147.44C146.273 49.25 145.386 49.53 144.78 50.09C144.173 50.6033 143.893 51.3733 143.94 52.4V63.95C142.726 65.5367 141.28 66.96 139.6 68.22C137.92 69.48 135.656 70.6 132.81 71.58C130.01 72.5133 126.953 72.98 123.64 72.98ZM199.937 71.3H200.497V72H184.747V71.3H185.377C186.357 71.3 187.081 70.9967 187.547 70.39C188.061 69.7367 188.317 69.13 188.317 68.57C188.317 68.01 188.224 67.45 188.037 66.89L183.557 54.99H164.657L159.967 66.96C159.781 67.52 159.687 68.08 159.687 68.64C159.687 69.1533 159.921 69.7367 160.387 70.39C160.901 70.9967 161.647 71.3 162.627 71.3H163.257V72H149.187V71.3H149.817C150.984 71.3 152.127 70.9267 153.247 70.18C154.367 69.4333 155.277 68.3367 155.977 66.89L171.797 29.23C173.524 25.45 174.387 23.0467 174.387 22.02H175.017L193.777 66.89C194.431 68.3367 195.317 69.4333 196.437 70.18C197.557 70.9267 198.724 71.3 199.937 71.3ZM165.497 52.89H182.717L174.317 30.42L165.497 52.89ZM226.38 72.98C219.007 72.9333 212.987 70.5767 208.32 65.91C203.7 61.2433 201.39 55.1067 201.39 47.5C201.39 39.8467 203.7 33.6867 208.32 29.02C212.987 24.3533 219.147 22.02 226.8 22.02C233.054 22.02 238.584 23.6067 243.39 26.78L244.79 36.65H244.16C243.134 32.6367 241.057 29.5567 237.93 27.41C234.804 25.2167 231.094 24.12 226.8 24.12C220.687 24.12 215.787 26.2433 212.1 30.49C208.46 34.7367 206.64 40.36 206.64 47.36C206.64 54.36 208.437 60.0067 212.03 64.3C215.67 68.5467 220.454 70.74 226.38 70.88C231.607 70.88 235.97 69.4567 239.47 66.61C243.25 63.53 245.537 58.5133 246.33 51.56H246.89L246.05 62.55C241.804 69.5033 235.247 72.98 226.38 72.98ZM297.484 23.7H296.504C295.104 23.7 293.774 24.0967 292.514 24.89C291.301 25.6367 290.274 26.5933 289.434 27.76L275.644 50.16V66.89C275.644 68.1033 276.064 69.1533 276.904 70.04C277.791 70.88 278.864 71.3 280.124 71.3H280.964V72H265.704V71.3H266.614C267.827 71.3 268.854 70.88 269.694 70.04C270.581 69.2 271.047 68.1733 271.094 66.96V50.09L257.724 27.76C257.024 26.64 256.021 25.6833 254.714 24.89C253.454 24.0967 252.124 23.7 250.724 23.7H249.744V23H266.964V23.7H266.054C265.027 23.7 264.234 24.1667 263.674 25.1C263.394 25.6133 263.254 26.1267 263.254 26.64C263.254 27.1067 263.371 27.5733 263.604 28.04L274.104 47.64L285.304 27.97C285.537 27.5033 285.654 27.0367 285.654 26.57C285.654 26.1033 285.491 25.6133 285.164 25.1C284.604 24.1667 283.811 23.7 282.784 23.7H281.944V23H297.484V23.7ZM368.403 9.28C369.99 8.20666 371.88 7.36666 374.073 6.76C376.267 6.15333 378.04 5.85 379.393 5.85C380.747 5.85 381.61 5.85 381.983 5.85V6.55C379.79 6.64333 377.737 7.08666 375.823 7.88C373.91 8.62666 372.323 9.51333 371.063 10.54C369.85 11.52 368.66 12.85 367.493 14.53C366.327 16.1633 365.417 17.5633 364.763 18.73C364.157 19.8967 363.433 21.39 362.593 23.21L343.133 65.77C341.407 69.55 340.543 71.9533 340.543 72.98H339.913L320.243 28.11C319.59 26.6167 318.68 25.52 317.513 24.82C316.393 24.0733 315.25 23.7 314.083 23.7H313.523V23H329.273V23.7H328.643C327.243 23.7 326.31 24.3533 325.843 25.66C325.75 25.94 325.703 26.2667 325.703 26.64C325.703 27.0133 325.82 27.48 326.053 28.04L340.683 64.72L358.043 23.21C360.797 16.7233 364.25 12.08 368.403 9.28ZM369.507 71.3C370.721 71.3 371.747 70.88 372.587 70.04C373.474 69.1533 373.941 68.1033 373.987 66.89V28.04C373.941 26.8267 373.474 25.8 372.587 24.96C371.747 24.12 370.721 23.7 369.507 23.7H368.597V23H383.927V23.7H383.017C381.804 23.7 380.754 24.12 379.867 24.96C379.027 25.8 378.584 26.8267 378.537 28.04V66.89C378.537 68.1033 378.981 69.1533 379.867 70.04C380.754 70.88 381.804 71.3 383.017 71.3H383.927V72H368.597V71.3H369.507ZM392.32 69.13C392.18 68.4767 392.11 67.2167 392.11 65.35C392.11 63.4833 392.46 61.5 393.16 59.4H393.79C393.743 59.9133 393.72 60.4267 393.72 60.94C393.72 63.7867 394.583 66.1667 396.31 68.08C398.036 69.9467 400.323 70.88 403.17 70.88C406.11 70.88 408.513 69.9933 410.38 68.22C412.293 66.4467 413.25 64.23 413.25 61.57C413.25 58.8633 412.34 56.67 410.52 54.99L397.08 42.53C394.56 40.1967 393.3 37.3733 393.3 34.06C393.3 30.7467 394.396 27.9233 396.59 25.59C398.83 23.21 401.84 22.02 405.62 22.02C407.393 22.02 409.4 22.2533 411.64 22.72H414.37V31.33H413.74C413.74 29.1367 412.97 27.3867 411.43 26.08C409.936 24.7733 408 24.12 405.62 24.12C403.24 24.12 401.233 24.9133 399.6 26.5C398.013 28.0867 397.22 30.07 397.22 32.45C397.22 34.83 398.153 36.8833 400.02 38.61L413.81 51.35C416.143 53.4967 417.31 56.4367 417.31 60.17C417.31 63.9033 416.12 66.9833 413.74 69.41C411.36 71.79 408.186 72.98 404.22 72.98C402.166 72.98 399.973 72.6533 397.64 72C395.353 71.3933 393.58 70.4367 392.32 69.13ZM426.451 71.3C427.664 71.3 428.691 70.88 429.531 70.04C430.417 69.1533 430.884 68.1033 430.931 66.89V28.04C430.884 26.8267 430.417 25.8 429.531 24.96C428.691 24.12 427.664 23.7 426.451 23.7H425.541V23H440.871V23.7H439.961C438.747 23.7 437.697 24.12 436.811 24.96C435.971 25.8 435.527 26.8267 435.481 28.04V66.89C435.481 68.1033 435.924 69.1533 436.811 70.04C437.697 70.88 438.747 71.3 439.961 71.3H440.871V72H425.541V71.3H426.451ZM453.916 29.09C458.909 24.3767 465.373 22.02 473.306 22.02C481.286 22.02 487.773 24.3767 492.766 29.09C497.759 33.7567 500.256 39.8933 500.256 47.5C500.256 55.1067 497.759 61.2667 492.766 65.98C487.773 70.6467 481.286 72.98 473.306 72.98C465.373 72.98 458.909 70.6467 453.916 65.98C448.923 61.2667 446.426 55.1067 446.426 47.5C446.426 39.8933 448.923 33.7567 453.916 29.09ZM457.696 64.44C461.663 68.7333 466.866 70.88 473.306 70.88C479.746 70.88 484.926 68.7333 488.846 64.44C492.813 60.1467 494.796 54.5 494.796 47.5C494.796 40.5 492.813 34.8533 488.846 30.56C484.926 26.2667 479.746 24.12 473.306 24.12C466.866 24.12 461.663 26.2667 457.696 30.56C453.776 34.8533 451.816 40.5 451.816 47.5C451.816 54.5 453.776 60.1467 457.696 64.44ZM557.422 23.7C556.255 23.7 555.252 24.12 554.412 24.96C553.572 25.7533 553.129 26.7333 553.082 27.9V64.02C553.082 66.7267 553.245 69.2933 553.572 71.72L553.712 72.98H553.082L514.932 32.24V67.1C514.932 68.2667 515.352 69.27 516.192 70.11C517.032 70.9033 518.035 71.3 519.202 71.3H520.532V72H506.112V71.3H507.442C508.609 71.3 509.612 70.9033 510.452 70.11C511.292 69.27 511.712 68.2433 511.712 67.03V30.7C511.712 27.8533 511.549 25.31 511.222 23.07L511.082 21.95H511.782L549.932 62.69V27.97C549.885 26.7567 549.442 25.7533 548.602 24.96C547.762 24.12 546.759 23.7 545.592 23.7H544.262V23H558.682V23.7H557.422Z" fill="#F4D8A2"/>
<circle cx="582.5" cy="51" r="6.5" fill="#F4D8A2"/>
<path d="M166.455 89.74L171.335 102.32C171.535 102.827 171.762 103.167 172.015 103.34C172.268 103.5 172.502 103.587 172.715 103.6V104C172.448 103.973 172.122 103.96 171.735 103.96C171.348 103.947 170.962 103.94 170.575 103.94C170.055 103.94 169.568 103.947 169.115 103.96C168.662 103.96 168.295 103.973 168.015 104V103.6C168.695 103.573 169.128 103.46 169.315 103.26C169.502 103.047 169.462 102.6 169.195 101.92L165.475 91.98L165.795 91.72L162.315 100.76C162.102 101.293 161.975 101.747 161.935 102.12C161.895 102.48 161.928 102.767 162.035 102.98C162.155 103.193 162.348 103.347 162.615 103.44C162.895 103.533 163.242 103.587 163.655 103.6V104C163.282 103.973 162.888 103.96 162.475 103.96C162.075 103.947 161.702 103.94 161.355 103.94C161.022 103.94 160.735 103.947 160.495 103.96C160.268 103.96 160.055 103.973 159.855 104V103.6C160.122 103.533 160.395 103.38 160.675 103.14C160.955 102.887 161.208 102.46 161.435 101.86L166.135 89.74C166.188 89.74 166.242 89.74 166.295 89.74C166.348 89.74 166.402 89.74 166.455 89.74ZM168.895 98.24V98.64H162.935L163.135 98.24H168.895ZM181.793 93.42C182.299 93.42 182.719 93.4867 183.053 93.62C183.399 93.7533 183.686 93.94 183.913 94.18C184.166 94.4467 184.346 94.78 184.453 95.18C184.559 95.58 184.613 96.12 184.613 96.8V102.14C184.613 102.7 184.726 103.08 184.953 103.28C185.193 103.48 185.586 103.58 186.133 103.58V104C185.906 103.987 185.559 103.973 185.093 103.96C184.626 103.933 184.173 103.92 183.733 103.92C183.293 103.92 182.859 103.933 182.433 103.96C182.019 103.973 181.706 103.987 181.493 104V103.58C181.973 103.58 182.313 103.48 182.513 103.28C182.713 103.08 182.813 102.7 182.813 102.14V96.36C182.813 95.9467 182.779 95.5667 182.713 95.22C182.646 94.8733 182.493 94.5933 182.253 94.38C182.026 94.1667 181.673 94.06 181.193 94.06C180.633 94.06 180.139 94.22 179.713 94.54C179.299 94.86 178.973 95.3 178.733 95.86C178.506 96.4067 178.393 97.02 178.393 97.7V102.14C178.393 102.7 178.493 103.08 178.693 103.28C178.893 103.48 179.233 103.58 179.713 103.58V104C179.499 103.987 179.179 103.973 178.753 103.96C178.339 103.933 177.913 103.92 177.473 103.92C177.033 103.92 176.579 103.933 176.113 103.96C175.646 103.973 175.299 103.987 175.073 104V103.58C175.619 103.58 176.006 103.48 176.233 103.28C176.473 103.08 176.593 102.7 176.593 102.14V95.88C176.593 95.28 176.486 94.84 176.273 94.56C176.059 94.2667 175.659 94.12 175.073 94.12V93.7C175.499 93.74 175.913 93.76 176.313 93.76C176.699 93.76 177.066 93.74 177.413 93.7C177.773 93.6467 178.099 93.5733 178.393 93.48V95.84C178.739 94.9333 179.219 94.3067 179.833 93.96C180.459 93.6 181.113 93.42 181.793 93.42ZM200.647 93.42C201.82 93.42 202.733 93.78 203.387 94.5C204.053 95.2067 204.387 96.3133 204.387 97.82H197.327L197.307 97.44H202.467C202.493 96.7867 202.44 96.1867 202.307 95.64C202.173 95.08 201.96 94.6333 201.667 94.3C201.387 93.9667 201.02 93.8 200.567 93.8C199.953 93.8 199.407 94.1067 198.927 94.72C198.46 95.3333 198.18 96.3067 198.087 97.64L198.147 97.72C198.12 97.92 198.1 98.14 198.087 98.38C198.073 98.62 198.067 98.86 198.067 99.1C198.067 100.007 198.213 100.787 198.507 101.44C198.8 102.093 199.18 102.593 199.647 102.94C200.127 103.273 200.62 103.44 201.127 103.44C201.527 103.44 201.907 103.38 202.267 103.26C202.627 103.127 202.96 102.913 203.267 102.62C203.573 102.327 203.84 101.933 204.067 101.44L204.467 101.6C204.32 102.04 204.08 102.467 203.747 102.88C203.413 103.293 202.993 103.633 202.487 103.9C201.98 104.153 201.393 104.28 200.727 104.28C199.767 104.28 198.94 104.06 198.247 103.62C197.567 103.18 197.04 102.573 196.667 101.8C196.307 101.013 196.127 100.113 196.127 99.1C196.127 97.9267 196.313 96.92 196.687 96.08C197.06 95.2267 197.587 94.5733 198.267 94.12C198.947 93.6533 199.74 93.42 200.647 93.42ZM211.19 93.7V94.12C210.937 94.12 210.724 94.18 210.55 94.3C210.377 94.42 210.357 94.5867 210.49 94.8L215.83 102.58C216.057 102.913 216.257 103.153 216.43 103.3C216.604 103.433 216.817 103.527 217.07 103.58V104C216.937 103.987 216.73 103.973 216.45 103.96C216.184 103.933 215.917 103.92 215.65 103.92C215.237 103.92 214.79 103.933 214.31 103.96C213.844 103.973 213.504 103.987 213.29 104V103.58C213.557 103.58 213.777 103.52 213.95 103.4C214.124 103.267 214.137 103.1 213.99 102.9L208.65 95.12C208.384 94.7333 208.17 94.48 208.01 94.36C207.85 94.2267 207.65 94.1467 207.41 94.12V93.7C207.544 93.7133 207.75 93.7333 208.03 93.76C208.31 93.7733 208.577 93.78 208.83 93.78C209.257 93.78 209.704 93.7733 210.17 93.76C210.637 93.7333 210.977 93.7133 211.19 93.7ZM211.73 98.78C211.73 98.78 211.744 98.8267 211.77 98.92C211.797 99 211.824 99.0867 211.85 99.18C211.89 99.2733 211.91 99.32 211.91 99.32L210.25 101.48C209.904 101.933 209.717 102.313 209.69 102.62C209.677 102.927 209.804 103.16 210.07 103.32C210.337 103.467 210.704 103.56 211.17 103.6V104C210.944 103.987 210.69 103.98 210.41 103.98C210.13 103.967 209.857 103.96 209.59 103.96C209.337 103.947 209.104 103.94 208.89 103.94C208.584 103.94 208.304 103.947 208.05 103.96C207.81 103.96 207.584 103.973 207.37 104V103.6C207.624 103.573 207.884 103.46 208.15 103.26C208.43 103.047 208.757 102.693 209.13 102.2L211.73 98.78ZM216.67 93.7V94.1C216.417 94.1267 216.137 94.26 215.83 94.5C215.537 94.7267 215.23 95.06 214.91 95.5L212.61 98.68C212.61 98.68 212.597 98.64 212.57 98.56C212.544 98.4667 212.517 98.38 212.49 98.3C212.464 98.2067 212.45 98.16 212.45 98.16L214.01 95.98C214.304 95.5667 214.49 95.2267 214.57 94.96C214.65 94.6933 214.604 94.4933 214.43 94.36C214.27 94.2133 213.95 94.1267 213.47 94.1V93.7C213.817 93.7133 214.104 93.7267 214.33 93.74C214.57 93.7533 214.844 93.76 215.15 93.76C215.457 93.76 215.73 93.7533 215.97 93.74C216.224 93.7267 216.457 93.7133 216.67 93.7ZM222.981 93.48V105.76C222.981 106.333 223.148 106.713 223.481 106.9C223.828 107.1 224.301 107.2 224.901 107.2V107.62C224.608 107.607 224.201 107.587 223.681 107.56C223.161 107.547 222.608 107.54 222.021 107.54C221.608 107.54 221.195 107.547 220.781 107.56C220.381 107.587 220.075 107.607 219.861 107.62V107.2C220.341 107.2 220.681 107.113 220.881 106.94C221.081 106.767 221.181 106.44 221.181 105.96V95.88C221.181 95.28 221.075 94.84 220.861 94.56C220.648 94.2667 220.248 94.12 219.661 94.12V93.7C220.088 93.74 220.501 93.76 220.901 93.76C221.288 93.76 221.655 93.74 222.001 93.7C222.361 93.6467 222.688 93.5733 222.981 93.48ZM226.181 93.42C226.888 93.42 227.521 93.6133 228.081 94C228.641 94.3733 229.081 94.9267 229.401 95.66C229.735 96.3933 229.901 97.3 229.901 98.38C229.901 99.1 229.815 99.8133 229.641 100.52C229.468 101.213 229.195 101.847 228.821 102.42C228.461 102.98 227.988 103.433 227.401 103.78C226.828 104.113 226.135 104.28 225.321 104.28C224.695 104.28 224.148 104.133 223.681 103.84C223.228 103.547 222.921 103.193 222.761 102.78L222.961 102.5C223.148 102.873 223.415 103.187 223.761 103.44C224.121 103.693 224.568 103.82 225.101 103.82C225.848 103.82 226.428 103.587 226.841 103.12C227.255 102.653 227.541 102.033 227.701 101.26C227.875 100.473 227.961 99.6067 227.961 98.66C227.961 97.5933 227.875 96.72 227.701 96.04C227.528 95.36 227.268 94.8533 226.921 94.52C226.575 94.1867 226.148 94.02 225.641 94.02C224.988 94.02 224.395 94.2933 223.861 94.84C223.328 95.3733 222.988 96.1867 222.841 97.28L222.601 97C222.748 95.8667 223.148 94.9867 223.801 94.36C224.468 93.7333 225.261 93.42 226.181 93.42ZM238.183 93.42C239.356 93.42 240.269 93.78 240.923 94.5C241.589 95.2067 241.923 96.3133 241.923 97.82H234.863L234.843 97.44H240.003C240.029 96.7867 239.976 96.1867 239.843 95.64C239.709 95.08 239.496 94.6333 239.203 94.3C238.923 93.9667 238.556 93.8 238.103 93.8C237.489 93.8 236.943 94.1067 236.463 94.72C235.996 95.3333 235.716 96.3067 235.623 97.64L235.683 97.72C235.656 97.92 235.636 98.14 235.623 98.38C235.609 98.62 235.603 98.86 235.603 99.1C235.603 100.007 235.749 100.787 236.043 101.44C236.336 102.093 236.716 102.593 237.183 102.94C237.663 103.273 238.156 103.44 238.663 103.44C239.063 103.44 239.443 103.38 239.803 103.26C240.163 103.127 240.496 102.913 240.803 102.62C241.109 102.327 241.376 101.933 241.603 101.44L242.003 101.6C241.856 102.04 241.616 102.467 241.283 102.88C240.949 103.293 240.529 103.633 240.023 103.9C239.516 104.153 238.929 104.28 238.263 104.28C237.303 104.28 236.476 104.06 235.783 103.62C235.103 103.18 234.576 102.573 234.203 101.8C233.843 101.013 233.663 100.113 233.663 99.1C233.663 97.9267 233.849 96.92 234.223 96.08C234.596 95.2267 235.123 94.5733 235.803 94.12C236.483 93.6533 237.276 93.42 238.183 93.42ZM251.56 93.42C251.92 93.42 252.233 93.4933 252.5 93.64C252.78 93.7867 252.993 93.98 253.14 94.22C253.3 94.4467 253.38 94.7067 253.38 95C253.38 95.3333 253.273 95.6267 253.06 95.88C252.86 96.1333 252.586 96.26 252.24 96.26C251.96 96.26 251.713 96.1733 251.5 96C251.286 95.8133 251.18 95.5533 251.18 95.22C251.18 94.9667 251.246 94.7533 251.38 94.58C251.526 94.3933 251.686 94.2467 251.86 94.14C251.766 94.0067 251.626 93.94 251.44 93.94C251.026 93.94 250.646 94.0667 250.3 94.32C249.953 94.56 249.66 94.8733 249.42 95.26C249.18 95.6467 248.993 96.06 248.86 96.5C248.726 96.9267 248.66 97.3267 248.66 97.7V101.94C248.66 102.593 248.846 103.033 249.22 103.26C249.606 103.473 250.126 103.58 250.78 103.58V104C250.473 103.987 250.04 103.973 249.48 103.96C248.92 103.933 248.326 103.92 247.7 103.92C247.246 103.92 246.793 103.933 246.34 103.96C245.9 103.973 245.566 103.987 245.34 104V103.58C245.886 103.58 246.273 103.48 246.5 103.28C246.74 103.08 246.86 102.7 246.86 102.14V95.88C246.86 95.28 246.753 94.84 246.54 94.56C246.326 94.2667 245.926 94.12 245.34 94.12V93.7C245.766 93.74 246.18 93.76 246.58 93.76C246.966 93.76 247.333 93.74 247.68 93.7C248.04 93.6467 248.366 93.5733 248.66 93.48V95.98C248.806 95.5933 249.013 95.2067 249.28 94.82C249.56 94.42 249.893 94.0867 250.28 93.82C250.666 93.5533 251.093 93.42 251.56 93.42ZM258.426 88.7C258.773 88.7 259.073 88.8267 259.326 89.08C259.579 89.3333 259.706 89.6333 259.706 89.98C259.706 90.3267 259.579 90.6267 259.326 90.88C259.073 91.1333 258.773 91.26 258.426 91.26C258.079 91.26 257.779 91.1333 257.526 90.88C257.273 90.6267 257.146 90.3267 257.146 89.98C257.146 89.6333 257.273 89.3333 257.526 89.08C257.779 88.8267 258.079 88.7 258.426 88.7ZM259.466 93.48V102.14C259.466 102.7 259.579 103.08 259.806 103.28C260.046 103.48 260.439 103.58 260.986 103.58V104C260.759 103.987 260.413 103.973 259.946 103.96C259.493 103.933 259.033 103.92 258.566 103.92C258.113 103.92 257.653 103.933 257.186 103.96C256.719 103.973 256.373 103.987 256.146 104V103.58C256.693 103.58 257.079 103.48 257.306 103.28C257.546 103.08 257.666 102.7 257.666 102.14V95.88C257.666 95.28 257.559 94.84 257.346 94.56C257.133 94.2667 256.733 94.12 256.146 94.12V93.7C256.573 93.74 256.986 93.76 257.386 93.76C257.773 93.76 258.139 93.74 258.486 93.7C258.846 93.6467 259.173 93.5733 259.466 93.48ZM268.765 93.42C269.939 93.42 270.852 93.78 271.505 94.5C272.172 95.2067 272.505 96.3133 272.505 97.82H265.445L265.425 97.44H270.585C270.612 96.7867 270.559 96.1867 270.425 95.64C270.292 95.08 270.079 94.6333 269.785 94.3C269.505 93.9667 269.139 93.8 268.685 93.8C268.072 93.8 267.525 94.1067 267.045 94.72C266.579 95.3333 266.299 96.3067 266.205 97.64L266.265 97.72C266.239 97.92 266.219 98.14 266.205 98.38C266.192 98.62 266.185 98.86 266.185 99.1C266.185 100.007 266.332 100.787 266.625 101.44C266.919 102.093 267.299 102.593 267.765 102.94C268.245 103.273 268.739 103.44 269.245 103.44C269.645 103.44 270.025 103.38 270.385 103.26C270.745 103.127 271.079 102.913 271.385 102.62C271.692 102.327 271.959 101.933 272.185 101.44L272.585 101.6C272.439 102.04 272.199 102.467 271.865 102.88C271.532 103.293 271.112 103.633 270.605 103.9C270.099 104.153 269.512 104.28 268.845 104.28C267.885 104.28 267.059 104.06 266.365 103.62C265.685 103.18 265.159 102.573 264.785 101.8C264.425 101.013 264.245 100.113 264.245 99.1C264.245 97.9267 264.432 96.92 264.805 96.08C265.179 95.2267 265.705 94.5733 266.385 94.12C267.065 93.6533 267.859 93.42 268.765 93.42ZM282.643 93.42C283.149 93.42 283.569 93.4867 283.903 93.62C284.249 93.7533 284.536 93.94 284.763 94.18C285.016 94.4467 285.196 94.78 285.303 95.18C285.409 95.58 285.463 96.12 285.463 96.8V102.14C285.463 102.7 285.576 103.08 285.803 103.28C286.043 103.48 286.436 103.58 286.983 103.58V104C286.756 103.987 286.409 103.973 285.943 103.96C285.476 103.933 285.023 103.92 284.583 103.92C284.143 103.92 283.709 103.933 283.283 103.96C282.869 103.973 282.556 103.987 282.343 104V103.58C282.823 103.58 283.163 103.48 283.363 103.28C283.563 103.08 283.663 102.7 283.663 102.14V96.36C283.663 95.9467 283.629 95.5667 283.563 95.22C283.496 94.8733 283.343 94.5933 283.103 94.38C282.876 94.1667 282.523 94.06 282.043 94.06C281.483 94.06 280.989 94.22 280.563 94.54C280.149 94.86 279.823 95.3 279.583 95.86C279.356 96.4067 279.243 97.02 279.243 97.7V102.14C279.243 102.7 279.343 103.08 279.543 103.28C279.743 103.48 280.083 103.58 280.563 103.58V104C280.349 103.987 280.029 103.973 279.603 103.96C279.189 103.933 278.763 103.92 278.323 103.92C277.883 103.92 277.429 103.933 276.963 103.96C276.496 103.973 276.149 103.987 275.923 104V103.58C276.469 103.58 276.856 103.48 277.083 103.28C277.323 103.08 277.443 102.7 277.443 102.14V95.88C277.443 95.28 277.336 94.84 277.123 94.56C276.909 94.2667 276.509 94.12 275.923 94.12V93.7C276.349 93.74 276.763 93.76 277.163 93.76C277.549 93.76 277.916 93.74 278.263 93.7C278.623 93.6467 278.949 93.5733 279.243 93.48V95.84C279.589 94.9333 280.069 94.3067 280.683 93.96C281.309 93.6 281.963 93.42 282.643 93.42ZM294.756 93.42C295.183 93.42 295.596 93.4733 295.996 93.58C296.396 93.6867 296.756 93.8467 297.076 94.06C297.383 94.26 297.616 94.4933 297.776 94.76C297.936 95.0133 298.016 95.2933 298.016 95.6C298.016 95.96 297.916 96.24 297.716 96.44C297.516 96.6267 297.263 96.72 296.956 96.72C296.663 96.72 296.403 96.6333 296.176 96.46C295.963 96.2867 295.856 96.04 295.856 95.72C295.856 95.4133 295.936 95.1667 296.096 94.98C296.269 94.7933 296.469 94.6733 296.696 94.62C296.563 94.38 296.323 94.18 295.976 94.02C295.643 93.86 295.283 93.78 294.896 93.78C294.563 93.78 294.229 93.86 293.896 94.02C293.563 94.18 293.256 94.4467 292.976 94.82C292.696 95.18 292.469 95.68 292.296 96.32C292.123 96.9467 292.036 97.7333 292.036 98.68C292.036 99.8533 292.169 100.787 292.436 101.48C292.703 102.173 293.049 102.673 293.476 102.98C293.916 103.273 294.396 103.42 294.916 103.42C295.263 103.42 295.616 103.353 295.976 103.22C296.336 103.087 296.676 102.873 296.996 102.58C297.316 102.273 297.589 101.867 297.816 101.36L298.196 101.5C298.063 101.927 297.843 102.36 297.536 102.8C297.229 103.227 296.829 103.58 296.336 103.86C295.843 104.14 295.236 104.28 294.516 104.28C293.689 104.28 292.943 104.067 292.276 103.64C291.609 103.213 291.076 102.607 290.676 101.82C290.289 101.02 290.096 100.073 290.096 98.98C290.096 97.8867 290.289 96.9267 290.676 96.1C291.076 95.26 291.629 94.6067 292.336 94.14C293.043 93.66 293.849 93.42 294.756 93.42ZM306.243 93.42C307.416 93.42 308.329 93.78 308.983 94.5C309.649 95.2067 309.983 96.3133 309.983 97.82H302.923L302.903 97.44H308.063C308.089 96.7867 308.036 96.1867 307.903 95.64C307.769 95.08 307.556 94.6333 307.263 94.3C306.983 93.9667 306.616 93.8 306.163 93.8C305.549 93.8 305.003 94.1067 304.523 94.72C304.056 95.3333 303.776 96.3067 303.683 97.64L303.743 97.72C303.716 97.92 303.696 98.14 303.683 98.38C303.669 98.62 303.663 98.86 303.663 99.1C303.663 100.007 303.809 100.787 304.103 101.44C304.396 102.093 304.776 102.593 305.243 102.94C305.723 103.273 306.216 103.44 306.723 103.44C307.123 103.44 307.503 103.38 307.863 103.26C308.223 103.127 308.556 102.913 308.863 102.62C309.169 102.327 309.436 101.933 309.663 101.44L310.063 101.6C309.916 102.04 309.676 102.467 309.343 102.88C309.009 103.293 308.589 103.633 308.083 103.9C307.576 104.153 306.989 104.28 306.323 104.28C305.363 104.28 304.536 104.06 303.843 103.62C303.163 103.18 302.636 102.573 302.263 101.8C301.903 101.013 301.723 100.113 301.723 99.1C301.723 97.9267 301.909 96.92 302.283 96.08C302.656 95.2267 303.183 94.5733 303.863 94.12C304.543 93.6533 305.336 93.42 306.243 93.42ZM323.246 90.38V93.72H326.206V94.12H323.246V101.86C323.246 102.487 323.36 102.927 323.586 103.18C323.813 103.433 324.126 103.56 324.526 103.56C324.926 103.56 325.273 103.4 325.566 103.08C325.86 102.747 326.113 102.193 326.326 101.42L326.726 101.52C326.593 102.293 326.326 102.947 325.926 103.48C325.54 104.013 324.94 104.28 324.126 104.28C323.673 104.28 323.3 104.22 323.006 104.1C322.713 103.993 322.453 103.833 322.226 103.62C321.933 103.313 321.726 102.947 321.606 102.52C321.5 102.093 321.446 101.527 321.446 100.82V94.12H319.526V93.72H321.446V90.66C321.78 90.6467 322.1 90.62 322.406 90.58C322.713 90.54 322.993 90.4733 323.246 90.38ZM333.897 93.42C334.75 93.42 335.517 93.6067 336.197 93.98C336.877 94.3533 337.417 94.94 337.817 95.74C338.23 96.54 338.437 97.58 338.437 98.86C338.437 100.14 338.23 101.18 337.817 101.98C337.417 102.767 336.877 103.347 336.197 103.72C335.517 104.093 334.75 104.28 333.897 104.28C333.057 104.28 332.29 104.093 331.597 103.72C330.917 103.347 330.37 102.767 329.957 101.98C329.557 101.18 329.357 100.14 329.357 98.86C329.357 97.58 329.557 96.54 329.957 95.74C330.37 94.94 330.917 94.3533 331.597 93.98C332.29 93.6067 333.057 93.42 333.897 93.42ZM333.897 93.82C333.137 93.82 332.51 94.2133 332.017 95C331.537 95.7867 331.297 97.0733 331.297 98.86C331.297 100.647 331.537 101.933 332.017 102.72C332.51 103.493 333.137 103.88 333.897 103.88C334.657 103.88 335.277 103.493 335.757 102.72C336.25 101.933 336.497 100.647 336.497 98.86C336.497 97.0733 336.25 95.7867 335.757 95C335.277 94.2133 334.657 93.82 333.897 93.82ZM354.954 93.42C355.314 93.42 355.628 93.4933 355.894 93.64C356.174 93.7867 356.388 93.98 356.534 94.22C356.694 94.4467 356.774 94.7067 356.774 95C356.774 95.3333 356.668 95.6267 356.454 95.88C356.254 96.1333 355.981 96.26 355.634 96.26C355.354 96.26 355.108 96.1733 354.894 96C354.681 95.8133 354.574 95.5533 354.574 95.22C354.574 94.9667 354.641 94.7533 354.774 94.58C354.921 94.3933 355.081 94.2467 355.254 94.14C355.161 94.0067 355.021 93.94 354.834 93.94C354.421 93.94 354.041 94.0667 353.694 94.32C353.348 94.56 353.054 94.8733 352.814 95.26C352.574 95.6467 352.388 96.06 352.254 96.5C352.121 96.9267 352.054 97.3267 352.054 97.7V101.94C352.054 102.593 352.241 103.033 352.614 103.26C353.001 103.473 353.521 103.58 354.174 103.58V104C353.868 103.987 353.434 103.973 352.874 103.96C352.314 103.933 351.721 103.92 351.094 103.92C350.641 103.92 350.188 103.933 349.734 103.96C349.294 103.973 348.961 103.987 348.734 104V103.58C349.281 103.58 349.668 103.48 349.894 103.28C350.134 103.08 350.254 102.7 350.254 102.14V95.88C350.254 95.28 350.148 94.84 349.934 94.56C349.721 94.2667 349.321 94.12 348.734 94.12V93.7C349.161 93.74 349.574 93.76 349.974 93.76C350.361 93.76 350.728 93.74 351.074 93.7C351.434 93.6467 351.761 93.5733 352.054 93.48V95.98C352.201 95.5933 352.408 95.2067 352.674 94.82C352.954 94.42 353.288 94.0867 353.674 93.82C354.061 93.5533 354.488 93.42 354.954 93.42ZM364.01 93.42C365.183 93.42 366.097 93.78 366.75 94.5C367.417 95.2067 367.75 96.3133 367.75 97.82H360.69L360.67 97.44H365.83C365.857 96.7867 365.803 96.1867 365.67 95.64C365.537 95.08 365.323 94.6333 365.03 94.3C364.75 93.9667 364.383 93.8 363.93 93.8C363.317 93.8 362.77 94.1067 362.29 94.72C361.823 95.3333 361.543 96.3067 361.45 97.64L361.51 97.72C361.483 97.92 361.463 98.14 361.45 98.38C361.437 98.62 361.43 98.86 361.43 99.1C361.43 100.007 361.577 100.787 361.87 101.44C362.163 102.093 362.543 102.593 363.01 102.94C363.49 103.273 363.983 103.44 364.49 103.44C364.89 103.44 365.27 103.38 365.63 103.26C365.99 103.127 366.323 102.913 366.63 102.62C366.937 102.327 367.203 101.933 367.43 101.44L367.83 101.6C367.683 102.04 367.443 102.467 367.11 102.88C366.777 103.293 366.357 103.633 365.85 103.9C365.343 104.153 364.757 104.28 364.09 104.28C363.13 104.28 362.303 104.06 361.61 103.62C360.93 103.18 360.403 102.573 360.03 101.8C359.67 101.013 359.49 100.113 359.49 99.1C359.49 97.9267 359.677 96.92 360.05 96.08C360.423 95.2267 360.95 94.5733 361.63 94.12C362.31 93.6533 363.103 93.42 364.01 93.42ZM377.767 93.42C378.234 93.42 378.64 93.4867 378.987 93.62C379.334 93.7533 379.62 93.94 379.847 94.18C380.1 94.4467 380.274 94.7933 380.367 95.22C380.46 95.6467 380.507 96.1733 380.507 96.8V102.14C380.507 102.7 380.62 103.08 380.847 103.28C381.087 103.48 381.48 103.58 382.027 103.58V104C381.8 103.987 381.454 103.973 380.987 103.96C380.52 103.933 380.067 103.92 379.627 103.92C379.187 103.92 378.754 103.933 378.327 103.96C377.914 103.973 377.6 103.987 377.387 104V103.58C377.867 103.58 378.207 103.48 378.407 103.28C378.607 103.08 378.707 102.7 378.707 102.14V96.36C378.707 95.9467 378.68 95.5667 378.627 95.22C378.574 94.8733 378.44 94.5933 378.227 94.38C378.014 94.1667 377.667 94.06 377.187 94.06C376.667 94.06 376.2 94.22 375.787 94.54C375.387 94.86 375.067 95.3 374.827 95.86C374.6 96.4067 374.487 97.02 374.487 97.7V102.14C374.487 102.7 374.587 103.08 374.787 103.28C374.987 103.48 375.327 103.58 375.807 103.58V104C375.594 103.987 375.274 103.973 374.847 103.96C374.434 103.933 374.007 103.92 373.567 103.92C373.127 103.92 372.674 103.933 372.207 103.96C371.74 103.973 371.394 103.987 371.167 104V103.58C371.714 103.58 372.1 103.48 372.327 103.28C372.567 103.08 372.687 102.7 372.687 102.14V95.88C372.687 95.28 372.58 94.84 372.367 94.56C372.154 94.2667 371.754 94.12 371.167 94.12V93.7C371.594 93.74 372.007 93.76 372.407 93.76C372.794 93.76 373.16 93.74 373.507 93.7C373.867 93.6467 374.194 93.5733 374.487 93.48V95.84C374.834 94.9733 375.307 94.3533 375.907 93.98C376.507 93.6067 377.127 93.42 377.767 93.42ZM383.787 93.42C384.254 93.42 384.66 93.4867 385.007 93.62C385.354 93.7533 385.64 93.94 385.867 94.18C386.12 94.4467 386.294 94.7933 386.387 95.22C386.48 95.6467 386.527 96.1733 386.527 96.8V102.14C386.527 102.7 386.64 103.08 386.867 103.28C387.107 103.48 387.5 103.58 388.047 103.58V104C387.82 103.987 387.474 103.973 387.007 103.96C386.54 103.933 386.087 103.92 385.647 103.92C385.207 103.92 384.774 103.933 384.347 103.96C383.934 103.973 383.62 103.987 383.407 104V103.58C383.887 103.58 384.227 103.48 384.427 103.28C384.627 103.08 384.727 102.7 384.727 102.14V96.36C384.727 95.9467 384.7 95.5667 384.647 95.22C384.594 94.8733 384.46 94.5933 384.247 94.38C384.034 94.1667 383.687 94.06 383.207 94.06C382.687 94.06 382.22 94.22 381.807 94.54C381.407 94.86 381.087 95.2933 380.847 95.84C380.62 96.3867 380.507 97 380.507 97.68L380.447 95.82C380.807 94.9 381.294 94.2733 381.907 93.94C382.52 93.5933 383.147 93.42 383.787 93.42ZM395.681 93.42C396.854 93.42 397.768 93.78 398.421 94.5C399.088 95.2067 399.421 96.3133 399.421 97.82H392.361L392.341 97.44H397.501C397.528 96.7867 397.474 96.1867 397.341 95.64C397.208 95.08 396.994 94.6333 396.701 94.3C396.421 93.9667 396.054 93.8 395.601 93.8C394.988 93.8 394.441 94.1067 393.961 94.72C393.494 95.3333 393.214 96.3067 393.121 97.64L393.181 97.72C393.154 97.92 393.134 98.14 393.121 98.38C393.108 98.62 393.101 98.86 393.101 99.1C393.101 100.007 393.248 100.787 393.541 101.44C393.834 102.093 394.214 102.593 394.681 102.94C395.161 103.273 395.654 103.44 396.161 103.44C396.561 103.44 396.941 103.38 397.301 103.26C397.661 103.127 397.994 102.913 398.301 102.62C398.608 102.327 398.874 101.933 399.101 101.44L399.501 101.6C399.354 102.04 399.114 102.467 398.781 102.88C398.448 103.293 398.028 103.633 397.521 103.9C397.014 104.153 396.428 104.28 395.761 104.28C394.801 104.28 393.974 104.06 393.281 103.62C392.601 103.18 392.074 102.573 391.701 101.8C391.341 101.013 391.161 100.113 391.161 99.1C391.161 97.9267 391.348 96.92 391.721 96.08C392.094 95.2267 392.621 94.5733 393.301 94.12C393.981 93.6533 394.774 93.42 395.681 93.42ZM409.438 93.42C409.905 93.42 410.312 93.4867 410.658 93.62C411.005 93.7533 411.292 93.94 411.518 94.18C411.772 94.4467 411.945 94.7933 412.038 95.22C412.132 95.6467 412.178 96.1733 412.178 96.8V102.14C412.178 102.7 412.292 103.08 412.518 103.28C412.758 103.48 413.152 103.58 413.698 103.58V104C413.472 103.987 413.125 103.973 412.658 103.96C412.192 103.933 411.738 103.92 411.298 103.92C410.858 103.92 410.425 103.933 409.998 103.96C409.585 103.973 409.272 103.987 409.058 104V103.58C409.538 103.58 409.878 103.48 410.078 103.28C410.278 103.08 410.378 102.7 410.378 102.14V96.36C410.378 95.9467 410.352 95.5667 410.298 95.22C410.245 94.8733 410.112 94.5933 409.898 94.38C409.685 94.1667 409.338 94.06 408.858 94.06C408.338 94.06 407.872 94.22 407.458 94.54C407.058 94.86 406.738 95.3 406.498 95.86C406.272 96.4067 406.158 97.02 406.158 97.7V102.14C406.158 102.7 406.258 103.08 406.458 103.28C406.658 103.48 406.998 103.58 407.478 103.58V104C407.265 103.987 406.945 103.973 406.518 103.96C406.105 103.933 405.678 103.92 405.238 103.92C404.798 103.92 404.345 103.933 403.878 103.96C403.412 103.973 403.065 103.987 402.838 104V103.58C403.385 103.58 403.772 103.48 403.998 103.28C404.238 103.08 404.358 102.7 404.358 102.14V95.88C404.358 95.28 404.252 94.84 404.038 94.56C403.825 94.2667 403.425 94.12 402.838 94.12V93.7C403.265 93.74 403.678 93.76 404.078 93.76C404.465 93.76 404.832 93.74 405.178 93.7C405.538 93.6467 405.865 93.5733 406.158 93.48V95.84C406.505 94.9733 406.978 94.3533 407.578 93.98C408.178 93.6067 408.798 93.42 409.438 93.42ZM415.458 93.42C415.925 93.42 416.332 93.4867 416.678 93.62C417.025 93.7533 417.312 93.94 417.538 94.18C417.792 94.4467 417.965 94.7933 418.058 95.22C418.152 95.6467 418.198 96.1733 418.198 96.8V102.14C418.198 102.7 418.312 103.08 418.538 103.28C418.778 103.48 419.172 103.58 419.718 103.58V104C419.492 103.987 419.145 103.973 418.678 103.96C418.212 103.933 417.758 103.92 417.318 103.92C416.878 103.92 416.445 103.933 416.018 103.96C415.605 103.973 415.292 103.987 415.078 104V103.58C415.558 103.58 415.898 103.48 416.098 103.28C416.298 103.08 416.398 102.7 416.398 102.14V96.36C416.398 95.9467 416.372 95.5667 416.318 95.22C416.265 94.8733 416.132 94.5933 415.918 94.38C415.705 94.1667 415.358 94.06 414.878 94.06C414.358 94.06 413.892 94.22 413.478 94.54C413.078 94.86 412.758 95.2933 412.518 95.84C412.292 96.3867 412.178 97 412.178 97.68L412.118 95.82C412.478 94.9 412.965 94.2733 413.578 93.94C414.192 93.5933 414.818 93.42 415.458 93.42ZM428.432 93.42C429.525 93.42 430.432 93.8733 431.152 94.78C431.872 95.6733 432.232 97.0333 432.232 98.86C432.232 100.06 432.025 101.067 431.612 101.88C431.212 102.68 430.672 103.28 429.992 103.68C429.312 104.08 428.572 104.28 427.772 104.28C427.105 104.28 426.459 104.093 425.832 103.72C425.219 103.333 424.759 102.767 424.452 102.02L424.852 102.24C425.185 102.773 425.599 103.173 426.092 103.44C426.585 103.693 427.092 103.82 427.612 103.82C428.505 103.82 429.172 103.42 429.612 102.62C430.065 101.807 430.292 100.553 430.292 98.86C430.292 97.78 430.205 96.88 430.032 96.16C429.859 95.44 429.592 94.9067 429.232 94.56C428.872 94.2 428.412 94.02 427.852 94.02C427.239 94.02 426.665 94.3 426.132 94.86C425.612 95.4067 425.292 96.2133 425.172 97.28L424.932 97C425.079 95.8667 425.472 94.9867 426.112 94.36C426.765 93.7333 427.539 93.42 428.432 93.42ZM425.312 88.34V102.96C425.139 103.107 424.959 103.26 424.772 103.42C424.599 103.567 424.425 103.713 424.252 103.86C424.079 104.007 423.899 104.16 423.712 104.32L423.372 104.18C423.425 103.993 423.459 103.807 423.472 103.62C423.499 103.42 423.512 103.22 423.512 103.02V90.74C423.512 90.14 423.405 89.7 423.192 89.42C422.979 89.1267 422.579 88.98 421.992 88.98V88.56C422.419 88.6 422.832 88.62 423.232 88.62C423.619 88.62 423.985 88.6 424.332 88.56C424.692 88.5067 425.019 88.4333 425.312 88.34ZM440.522 93.42C441.695 93.42 442.608 93.78 443.262 94.5C443.928 95.2067 444.262 96.3133 444.262 97.82H437.202L437.182 97.44H442.342C442.368 96.7867 442.315 96.1867 442.182 95.64C442.048 95.08 441.835 94.6333 441.542 94.3C441.262 93.9667 440.895 93.8 440.442 93.8C439.828 93.8 439.282 94.1067 438.802 94.72C438.335 95.3333 438.055 96.3067 437.962 97.64L438.022 97.72C437.995 97.92 437.975 98.14 437.962 98.38C437.948 98.62 437.942 98.86 437.942 99.1C437.942 100.007 438.088 100.787 438.382 101.44C438.675 102.093 439.055 102.593 439.522 102.94C440.002 103.273 440.495 103.44 441.002 103.44C441.402 103.44 441.782 103.38 442.142 103.26C442.502 103.127 442.835 102.913 443.142 102.62C443.448 102.327 443.715 101.933 443.942 101.44L444.342 101.6C444.195 102.04 443.955 102.467 443.622 102.88C443.288 103.293 442.868 103.633 442.362 103.9C441.855 104.153 441.268 104.28 440.602 104.28C439.642 104.28 438.815 104.06 438.122 103.62C437.442 103.18 436.915 102.573 436.542 101.8C436.182 101.013 436.002 100.113 436.002 99.1C436.002 97.9267 436.188 96.92 436.562 96.08C436.935 95.2267 437.462 94.5733 438.142 94.12C438.822 93.6533 439.615 93.42 440.522 93.42ZM453.899 93.42C454.259 93.42 454.572 93.4933 454.839 93.64C455.119 93.7867 455.332 93.98 455.479 94.22C455.639 94.4467 455.719 94.7067 455.719 95C455.719 95.3333 455.612 95.6267 455.399 95.88C455.199 96.1333 454.925 96.26 454.579 96.26C454.299 96.26 454.052 96.1733 453.839 96C453.625 95.8133 453.519 95.5533 453.519 95.22C453.519 94.9667 453.585 94.7533 453.719 94.58C453.865 94.3933 454.025 94.2467 454.199 94.14C454.105 94.0067 453.965 93.94 453.779 93.94C453.365 93.94 452.985 94.0667 452.639 94.32C452.292 94.56 451.999 94.8733 451.759 95.26C451.519 95.6467 451.332 96.06 451.199 96.5C451.065 96.9267 450.999 97.3267 450.999 97.7V101.94C450.999 102.593 451.185 103.033 451.559 103.26C451.945 103.473 452.465 103.58 453.119 103.58V104C452.812 103.987 452.379 103.973 451.819 103.96C451.259 103.933 450.665 103.92 450.039 103.92C449.585 103.92 449.132 103.933 448.679 103.96C448.239 103.973 447.905 103.987 447.679 104V103.58C448.225 103.58 448.612 103.48 448.839 103.28C449.079 103.08 449.199 102.7 449.199 102.14V95.88C449.199 95.28 449.092 94.84 448.879 94.56C448.665 94.2667 448.265 94.12 447.679 94.12V93.7C448.105 93.74 448.519 93.76 448.919 93.76C449.305 93.76 449.672 93.74 450.019 93.7C450.379 93.6467 450.705 93.5733 450.999 93.48V95.98C451.145 95.5933 451.352 95.2067 451.619 94.82C451.899 94.42 452.232 94.0867 452.619 93.82C453.005 93.5533 453.432 93.42 453.899 93.42Z" fill="#FFFEF6"/>
</svg>
