<svg width="84" height="41" viewBox="0 0 84 41" fill="none" xmlns="http://www.w3.org/2000/svg">
<path d="M1.48617 37.7271L80.0335 37.2885C80.299 37.287 80.5131 37.0705 80.5116 36.805C80.5101 36.5395 80.2937 36.3255 80.0282 36.3269L1.4808 36.7656C1.21529 36.7671 1.00125 36.9836 1.00274 37.2491C1.00422 37.5146 1.22066 37.7286 1.48617 37.7271Z" fill="#E8D39B"/>
<path d="M79.6411 1.48616L79.8388 36.9343C79.8403 37.1998 80.0567 37.4138 80.3222 37.4124L80.3222 37.4124C80.5878 37.4109 80.8018 37.1944 80.8003 36.9289L80.6026 1.4808C80.6012 1.21529 80.3847 1.00124 80.1192 1.00272C79.8537 1.0042 79.6397 1.22065 79.6411 1.48616Z" fill="#E8D39B"/>
<path d="M2.12112 35.7999L2.13721 38.6844L5.02172 38.6684L5.00563 35.7838L2.12112 35.7999Z" stroke="#E8D39B" stroke-width="2.88456"/>
<path d="M78.7626 2.05689L78.7787 4.94141L81.6632 4.92532L81.6471 2.04081L78.7626 2.05689Z" stroke="#E8D39B" stroke-width="2.88456"/>
</svg>
