<svg width="84" height="40" viewBox="0 0 84 40" fill="none" xmlns="http://www.w3.org/2000/svg">
<path d="M1.48648 37.0172L80.9669 37.4968C81.2356 37.4984 81.4554 37.164 81.4579 36.7498C81.4604 36.3356 81.2446 35.9985 80.976 35.9968L1.49554 35.5172C1.22686 35.5156 1.00704 35.8501 1.00454 36.2643C1.00204 36.6785 1.21781 37.0156 1.48648 37.0172Z" fill="#E8D39B"/>
<path d="M80.0508 1.47535V36.5247C80.0508 36.7872 80.3866 37 80.8008 37C81.215 37 81.5508 36.7872 81.5508 36.5247V1.47535C81.5508 1.21282 81.215 1 80.8008 1C80.3866 1 80.0508 1.21282 80.0508 1.47535Z" fill="#E8D39B"/>
<path d="M2.13801 35.098L2.12061 37.9825L5.00511 38L5.02252 35.1154L2.13801 35.098Z" stroke="#E8D39B" stroke-width="2.88456"/>
<path d="M79.1663 2.24721L79.1489 5.13171L82.0334 5.14912L82.0508 2.26462L79.1663 2.24721Z" stroke="#E8D39B" stroke-width="2.88456"/>
</svg>
