<svg width="84" height="40" viewBox="0 0 84 40" fill="none" xmlns="http://www.w3.org/2000/svg">
<path d="M82.57 2.98289L4.02287 2.50888C3.75735 2.50728 3.54082 2.72122 3.53921 2.98673C3.53761 3.25224 3.75155 3.46878 4.01706 3.47039L82.5642 3.94439C82.8297 3.94599 83.0463 3.73205 83.0479 3.46654C83.0495 3.20103 82.8355 2.98449 82.57 2.98289Z" fill="#E8D39B"/>
<path d="M3.99952 38.3133L4.21347 2.86527C4.21507 2.59976 4.00113 2.38322 3.73562 2.38162C3.47011 2.38002 3.25357 2.59396 3.25196 2.85947L3.03802 38.3075C3.03642 38.573 3.25036 38.7896 3.51587 38.7912C3.78138 38.7928 3.99792 38.5788 3.99952 38.3133Z" fill="#E8D39B"/>
<path d="M81.9128 4.90196L81.9302 2.01746L79.0457 2.00005L79.0283 4.88455L81.9128 4.90196Z" stroke="#E8D39B" stroke-width="2.88456"/>
<path d="M4.88451 37.7528L4.90192 34.8683L2.01741 34.8509L2 37.7354L4.88451 37.7528Z" stroke="#E8D39B" stroke-width="2.88456"/>
</svg>
