<svg width="84" height="40" viewBox="0 0 84 40" fill="none" xmlns="http://www.w3.org/2000/svg">
<path d="M82.5643 2.98282L3.08388 2.50318C2.81521 2.50156 2.59539 2.83602 2.59289 3.25023C2.59039 3.66443 2.80616 4.00153 3.07482 4.00315L82.5552 4.48279C82.8239 4.48441 83.0437 4.14994 83.0462 3.73574C83.0487 3.32153 82.833 2.98444 82.5643 2.98282Z" fill="#E8D39B"/>
<path d="M4 38.5247L4 3.47534C4 3.21282 3.66422 3 3.25 3C2.83579 3 2.5 3.21282 2.5 3.47534L2.5 38.5247C2.5 38.7872 2.83579 39 3.25 39C3.66422 39 4 38.7872 4 38.5247Z" fill="#E8D39B"/>
<path d="M81.9128 4.90196L81.9302 2.01746L79.0457 2.00005L79.0283 4.88455L81.9128 4.90196Z" stroke="#E8D39B" stroke-width="2.88456"/>
<path d="M4.88451 37.7528L4.90192 34.8683L2.01741 34.8509L2 37.7354L4.88451 37.7528Z" stroke="#E8D39B" stroke-width="2.88456"/>
</svg>
