<svg width="507" height="37" viewBox="0 0 507 37" fill="none" xmlns="http://www.w3.org/2000/svg">
<ellipse cx="8.22828" cy="2.87452" rx="8.22828" ry="2.87452" transform="matrix(-0.716968 0.697106 -0.810264 -0.586065 273.878 7.52805)" fill="#F4D8A2"/>
<ellipse cx="253.235" cy="7.73808" rx="7.73808" ry="3.58839" transform="rotate(90 253.235 7.73808)" fill="#F4D8A2"/>
<ellipse cx="8.22833" cy="2.8745" rx="8.22833" ry="2.8745" transform="matrix(0.716995 0.697078 -0.810243 0.586094 237.397 4.15897)" fill="#F4D8A2"/>
<ellipse cx="12.0334" cy="2.67694" rx="12.0334" ry="2.67694" transform="matrix(0.999996 0.00292382 -0.00581624 0.999983 220.781 21.5758)" fill="#F4D8A2"/>
<ellipse cx="12.0334" cy="2.67694" rx="12.0334" ry="2.67694" transform="matrix(0.999996 0.00292382 -0.00581624 0.999983 261.683 21.5758)" fill="#F4D8A2"/>
<ellipse cx="253.19" cy="24.25" rx="2.75" ry="3.52605" transform="rotate(-90 253.19 24.25)" fill="#D9D9D9"/>
<path d="M0 36H241.5" stroke="#F4D8A2" stroke-width="2"/>
<path d="M265 36H506.5" stroke="#F4D8A2" stroke-width="2"/>
</svg>
